<svg width="114" height="68" viewBox="0 0 114 68" fill="none" xmlns="http://www.w3.org/2000/svg">
<path d="M25.0091 21.2288C28.5288 21.2288 31.6045 21.9264 34.2364 23.3216C36.8682 24.7169 38.8976 26.6829 40.3245 29.2197C41.7831 31.7248 42.5124 34.6263 42.5124 37.9241C42.5124 41.1903 41.7831 44.0917 40.3245 46.6285C38.8976 49.1653 36.8523 51.1314 34.1888 52.5266C31.557 53.9219 28.4971 54.6195 25.0091 54.6195H12.5V21.2288H25.0091ZM24.4859 47.5798C27.5617 47.5798 29.9557 46.7395 31.668 45.0589C33.3802 43.3783 34.2364 41 34.2364 37.9241C34.2364 34.8482 33.3802 32.4541 31.668 30.7418C29.9557 29.0294 27.5617 28.1733 24.4859 28.1733H20.6333V47.5798H24.4859Z" fill="#171717"/>
<path d="M55.1909 28.0781V54.6195H47.0576V28.0781H55.1909Z" fill="#171717"/>
<path d="M59.4679 41.3012C59.4679 38.5742 59.9752 36.1801 60.9899 34.1189C62.0363 32.0578 63.4473 30.4722 65.223 29.3624C66.9987 28.2525 68.9805 27.6976 71.1684 27.6976C73.0393 27.6976 74.6723 28.0781 76.0674 28.8392C77.4943 29.6002 78.5883 30.5991 79.3493 31.8358V28.0781H87.4826V54.6195H79.3493V50.8618C78.5566 52.0985 77.4468 53.0974 76.0199 53.8584C74.6247 54.6195 72.9917 55 71.1209 55C68.9647 55 66.9987 54.4451 65.223 53.3352C63.4473 52.1937 62.0363 50.5923 60.9899 48.5311C59.9752 46.4383 59.4679 44.0283 59.4679 41.3012ZM79.3493 41.3488C79.3493 39.3194 78.7785 37.718 77.637 36.5447C76.5272 35.3715 75.1637 34.7848 73.5466 34.7848C71.9294 34.7848 70.5501 35.3715 69.4086 36.5447C68.2988 37.6863 67.7439 39.2718 67.7439 41.3012C67.7439 43.3307 68.2988 44.9479 69.4086 46.1529C70.5501 47.3262 71.9294 47.9128 73.5466 47.9128C75.1637 47.9128 76.5272 47.3262 77.637 46.1529C78.7785 44.9796 79.3493 43.3783 79.3493 41.3488Z" fill="#171717"/>
<path d="M101.5 19.4213V54.6195H93.3667V19.4213H101.5Z" fill="#171717"/>
<path fill-rule="evenodd" clip-rule="evenodd" d="M51.1451 13C51.8018 13 52.3342 13.5324 52.3342 14.1891V24.8913C52.3342 25.548 51.8018 26.0804 51.1451 26.0804C50.4884 26.0804 49.956 25.548 49.956 24.8913V14.1891C49.956 13.5324 50.4884 13 51.1451 13ZM46.3888 14.7837C47.0455 14.7837 47.5778 15.3161 47.5778 15.9728V23.1076C47.5778 23.7643 47.0455 24.2967 46.3888 24.2967C45.7321 24.2967 45.1997 23.7643 45.1997 23.1076V15.9728C45.1997 15.3161 45.7321 14.7837 46.3888 14.7837ZM55.9014 14.7837C56.5581 14.7837 57.0905 15.3161 57.0905 15.9728V23.1076C57.0905 23.7643 56.5581 24.2967 55.9014 24.2967C55.2447 24.2967 54.7123 23.7643 54.7123 23.1076V15.9728C54.7123 15.3161 55.2447 14.7837 55.9014 14.7837ZM41.6324 15.9728C42.2892 15.9728 42.8215 16.5052 42.8215 17.1619V21.9185C42.8215 22.5752 42.2892 23.1076 41.6324 23.1076C40.9757 23.1076 40.4434 22.5752 40.4434 21.9185V17.1619C40.4434 16.5052 40.9757 15.9728 41.6324 15.9728ZM60.6577 15.9728C61.3144 15.9728 61.8468 16.5052 61.8468 17.1619V21.9185C61.8468 22.5752 61.3144 23.1076 60.6577 23.1076C60.001 23.1076 59.4686 22.5752 59.4686 21.9185V17.1619C59.4686 16.5052 60.001 15.9728 60.6577 15.9728Z" fill="#273BF4"/>
</svg>
